<svg width="1376" height="365" fill="none" xmlns="http://www.w3.org/2000/svg"><g clip-path="url(#prefix__clip0)" fill="#fff"><path d="M-.725 4.854v165.36h101.972c42.612 0 50.668-7.208 50.668-45.58v-4.24c0-24.804-8.056-32.012-36.676-33.92 23.956-2.544 30.74-8.692 30.74-34.132V47.89c0-36.252-6.996-43.036-44.732-43.036H-.725zm44.52 128.048v-29.68h44.944c15.688 0 18.656 2.332 18.656 15.052 0 11.872-2.968 14.628-18.656 14.628H43.795zm0-64.024v-27.56h42.824c12.508 0 14.84 2.332 14.84 13.992 0 11.236-2.332 13.568-14.84 13.568H43.795zM290.451 4.854h-72.08l-57.028 165.36h48.76l9.116-32.224h66.356l10.388 32.224h50.88L290.451 4.854zm-60.844 97.096l23.108-63.176h1.696l21.2 63.176h-46.004zM400.733 115.73v-2.12h-46.64v2.12c0 48.124 11.872 57.028 80.984 57.028 67.204 0 78.441-7.632 78.441-47.488 0-32.86-4.241-40.068-27.349-46.428-14.415-4.028-26.075-6.572-51.092-11.448-26.924-3.816-33.284-6.148-33.284-14.628 0-11.872 5.089-14.416 33.284-14.416 25.864 0 29.892 3.604 29.892 21.2v2.12h46.64v-2.12c0-48.336-12.084-57.24-76.532-57.24-62.751 0-77.804 9.964-77.804 46.004 0 34.98 5.3 42.612 33.072 49.184 22.26 5.088 30.528 6.996 44.732 9.328 26.077 5.088 33.92 7.42 33.92 16.536 0 11.236-5.724 13.356-33.92 13.356-28.62 0-34.344-2.544-34.344-20.988zM530.306 4.854v165.36h135.468v-38.16h-90.948v-27.56h80.136v-36.04h-80.136v-25.44h90.948V4.854H530.306zM729.201 170.214V47.254h1.272l24.38 122.96h59.36l27.984-122.96h1.272v122.96h44.52V4.854h-77.804l-24.804 127.2h-1.696l-21.412-127.2h-77.592v165.36h44.52zM906.962 4.854v165.36h135.468v-38.16h-90.948v-27.56h80.138v-36.04h-80.138v-25.44h90.948V4.854H906.962zM1061.34 170.214h42.4V68.454h1.27l62.33 101.76h50.88V4.854h-42.4v101.76h-1.27l-60.21-101.76h-53v165.36zM1280.49 170.214h44.52V40.894h51.09V4.854h-146.28v36.04h50.67v129.32z"/><path fill-rule="evenodd" clip-rule="evenodd" d="M246.044 296.396v4.12c0 9.172 1.465 13.344 5.452 15.686 2.15 1.262 5.223 2.115 9.681 2.63 4.44.512 10.066.672 17.211.672 7.036 0 12.613-.133 17.03-.5 4.437-.369 7.568-.966 9.776-1.828 2.152-.839 3.326-1.889 4.026-3.164.739-1.344 1.088-3.185 1.088-5.864 0-1.976-.418-3.387-1.254-4.542-.861-1.19-2.312-2.312-4.751-3.414-4.957-2.24-13.165-4.054-26.269-6.611-13.973-2.295-22.254-4.188-43.512-9.048l-1.319-.301-.008-.002c-13.902-3.29-22.882-6.971-28.147-14.766-5.184-7.676-6.464-18.938-6.464-36.364 0-18.26 3.819-30.685 16.338-38.23 6.123-3.691 14.181-6.117 24.546-7.633 10.376-1.518 23.193-2.141 38.92-2.141 16.136 0 29.101.556 39.455 2.17 10.349 1.614 18.266 4.31 24.175 8.721 11.951 8.92 14.902 24.226 14.902 48.349v4.12h-50.64v-4.12c0-8.866-1.085-13.14-4.427-15.584-1.749-1.279-4.314-2.21-8.185-2.801-3.861-.589-8.839-.815-15.28-.815-7.032 0-12.56.159-16.906.574-4.367.417-7.395 1.08-9.501 2.011-2.035.9-3.159 2.023-3.839 3.437-.722 1.501-1.038 3.525-1.038 6.394 0 1.869.349 3.161 1.06 4.189.725 1.049 1.99 2.059 4.272 3.035 4.664 1.995 12.698 3.506 26.233 5.424l.051.007.051.01c25.026 4.878 36.75 7.434 51.244 11.484 11.619 3.198 19.153 6.76 23.528 14.189 4.265 7.242 5.285 17.809 5.285 34.166 0 19.953-2.764 32.891-14.971 40.394-5.959 3.663-13.992 5.91-24.608 7.263-10.634 1.355-24.04 1.831-40.861 1.831-17.3 0-31.119-.556-42.1-2.164-10.971-1.607-19.293-4.289-25.467-8.673-12.521-8.89-15.417-24.176-15.417-48.191v-4.12h50.64zm83.436-32.768c-14.416-4.028-26.076-6.572-51.092-11.448-26.924-3.816-33.284-6.148-33.284-14.628 0-11.872 5.088-14.416 33.284-14.416 25.864 0 29.892 3.604 29.892 21.2v2.12h46.64v-2.12c0-48.336-12.084-57.24-76.532-57.24-62.752 0-77.804 9.964-77.804 46.004 0 34.98 5.3 42.612 33.072 49.184l1.275.292c21.307 4.87 29.528 6.749 43.457 9.036 26.076 5.088 33.92 7.42 33.92 16.536 0 11.236-5.724 13.356-33.92 13.356-28.62 0-34.344-2.544-34.344-20.988v-2.12h-46.64v2.12c0 48.124 11.872 57.028 80.984 57.028 67.204 0 78.44-7.632 78.44-47.488 0-32.86-4.24-40.068-27.348-46.428zm203.841-75.988v99.52c0 14.875-.715 26.868-2.802 36.465-2.093 9.624-5.597 16.979-11.275 22.43-5.67 5.443-13.309 8.795-23.305 10.8-9.979 2.001-22.462 2.689-37.97 2.689s-27.992-.688-37.971-2.689c-9.996-2.005-17.634-5.357-23.304-10.8-5.678-5.451-9.182-12.806-11.276-22.43-2.087-9.597-2.801-21.59-2.801-36.465v-99.52h48.52v99.52c0 7.234.279 12.871 1.047 17.276.767 4.402 1.993 7.4 3.758 9.502 3.492 4.159 9.743 5.566 22.027 5.566s18.534-1.407 22.026-5.566c1.765-2.102 2.992-5.1 3.759-9.502.767-4.405 1.047-10.042 1.047-17.276v-99.52h48.52zm-2 2v97.52c0 59.36-11.448 70.384-73.352 70.384s-73.352-11.024-73.352-70.384v-97.52h44.52v97.52c0 29.044 4.452 34.344 28.832 34.344 24.38 0 28.832-5.3 28.832-34.344v-97.52h44.52zm28.057-2h96.552c21.654 0 36.208 2.984 45.206 12.153 8.985 9.156 11.914 23.96 11.914 46.027v8.48c0 21.438-2.722 35.92-11.057 45.219-8.369 9.337-21.94 12.955-42.141 14.018l-.053.003h-51.901V357h-48.52V187.64zM605.898 355h-44.52V189.64h94.552c43.248 0 55.12 12.084 55.12 56.18v8.48c0 42.824-11.024 55.12-51.304 57.24h-53.848V355zm2-127.32v43.7h36.584c4.63 0 8.164-.227 10.889-.822 2.697-.589 4.456-1.509 5.683-2.797 1.236-1.298 2.126-3.172 2.693-6.038.57-2.883.783-6.606.783-11.451 0-5.166-.213-9.15-.787-12.242-.573-3.083-1.476-5.11-2.73-6.511-1.236-1.379-2.991-2.349-5.667-2.97-2.712-.629-6.236-.869-10.864-.869h-36.584zm128.035-40.04h96.552c21.654 0 36.208 2.984 45.206 12.153 8.985 9.156 11.914 23.96 11.914 46.027v8.48c0 21.438-2.722 35.92-11.058 45.219-8.369 9.337-21.939 12.955-42.141 14.018l-.052.003h-51.901V357h-48.52V187.64zM782.453 355h-44.52V189.64h94.552c43.248 0 55.12 12.084 55.12 56.18v8.48c0 42.824-11.024 55.12-51.304 57.24h-53.848V355zm2-127.32v43.7h36.584c4.629 0 8.164-.227 10.889-.822 2.696-.589 4.456-1.509 5.683-2.797 1.236-1.298 2.126-3.172 2.693-6.038.57-2.883.783-6.606.783-11.451 0-5.166-.213-9.15-.788-12.242-.573-3.083-1.476-5.11-2.73-6.511-1.235-1.379-2.99-2.349-5.666-2.97-2.713-.629-6.237-.869-10.864-.869h-36.584zm128.035-40.04h48.52v127.2H1035V357H912.488V187.64zM1033 316.84V355H914.488V189.64h44.52v127.2H1033zm154.1-129.2l-60.11 108.939V357h-48.52v-60.413l-61.2-108.947h55.53l30.15 60.303 30.78-60.303h53.37zm-115.53 2h-50.89l59.79 106.424V355h44.52v-58.936l58.72-106.424h-48.76l-31.37 61.48h-1.28l-30.73-61.48zm-465.672 83.74h38.584c18.656 0 22.048-3.604 22.048-23.108 0-20.776-3.392-24.592-22.048-24.592h-38.584v47.7zm176.555 0h38.584c18.656 0 22.048-3.604 22.048-23.108 0-20.776-3.392-24.592-22.048-24.592h-38.584v47.7z"/><path d="M1263.85 294.271v-3.4h-6.84l4.62-3.92c1.76-1.5 2.02-2 2.1-4.52.12-3.2-.92-4-6.32-4-5.42 0-6.22.84-6.22 5.4v.2h4v-.2c0-1.66.48-2.2 2.2-2.2 1.78 0 2.26.44 2.26 1.56 0 1-.5 1.5-1.64 2.46l-6.9 5.82v2.8h12.74zM1265.65 294.271h4.2v-6.26h2.22l3.54 6.26h4.8l-5.06-8.16 4.86-7.44h-4.6l-3.66 5.74h-2.1v-5.74h-4.2v15.6zM1284.41 294.271h3.8v-15.6h-3.6c0 2.04-.44 2.42-2.18 2.42h-1.82v2.8h3.8v10.38zM1289.61 283.611v.64c0 3.84.98 4.68 4.56 4.68 2.44 0 3.72-.68 4.22-2.42v3.4c0 1.34-.38 1.6-2.56 1.6-1.46 0-1.76-.16-1.76-1.08h-4c0 3.38.76 4 5.9 4 5.28 0 6.22-.66 6.22-4.24v-7.24c-.04-3.5-1.32-4.52-6.2-4.52-5.38 0-6.38.82-6.38 5.18zm4 .22v-.02c0-1.86.34-2.18 2.38-2.18 2.06 0 2.4.24 2.4 1.5v1.26c0 1.16-.6 1.44-2.4 1.44-2.04 0-2.38-.32-2.38-2z"/><path fill-rule="evenodd" clip-rule="evenodd" d="M1329.1 309.467c13.62-6.455 21.4-15.077 21.4-24.101s-7.78-17.646-21.4-24.1c-13.51-6.4-32.28-10.4-53.1-10.4s-39.59 4-53.1 10.4c-13.62 6.454-21.4 15.076-21.4 24.1 0 9.024 7.78 17.646 21.4 24.101 13.51 6.4 32.28 10.399 53.1 10.399s39.59-3.999 53.1-10.399zm-53.1 11.899c41.97 0 76-16.117 76-36 0-19.882-34.03-36-76-36s-76 16.118-76 36c0 19.883 34.03 36 76 36z"/><path d="M78.85 278.671v15.6h12.78v-3.6h-8.58v-2.6h7.56v-3.4h-7.56v-2.4h8.58v-3.6H78.85zM97.224 289.131v-.2h-4.4v.2c0 4.54 1.12 5.38 7.64 5.38 6.34 0 7.4-.72 7.4-4.48 0-3.1-.4-3.78-2.58-4.38-1.36-.38-2.46-.62-4.82-1.08-2.54-.36-3.14-.58-3.14-1.38 0-1.12.48-1.36 3.14-1.36 2.44 0 2.82.34 2.82 2v.2h4.4v-.2c0-4.56-1.14-5.4-7.22-5.4-5.92 0-7.34.94-7.34 4.34 0 3.3.5 4.02 3.12 4.64 2.1.48 2.88.66 4.22.88 2.46.48 3.2.7 3.2 1.56 0 1.06-.54 1.26-3.2 1.26-2.7 0-3.24-.24-3.24-1.98zM113.339 294.271h4.2v-12.2h4.82v-3.4h-13.8v3.4h4.78v12.2z"/><path fill-rule="evenodd" clip-rule="evenodd" d="M153.098 309.467c13.626-6.455 21.402-15.077 21.402-24.101s-7.776-17.646-21.402-24.1c-13.511-6.4-32.283-10.4-53.098-10.4-20.815 0-39.587 4-53.098 10.4-13.626 6.454-21.402 15.076-21.402 24.1 0 9.024 7.776 17.646 21.402 24.101 13.511 6.4 32.283 10.399 53.098 10.399 20.815 0 39.587-3.999 53.098-10.399zM100 321.366c41.974 0 76-16.117 76-36 0-19.882-34.026-36-76-36s-76 16.118-76 36c0 19.883 34.026 36 76 36z"/></g><defs><clipPath id="prefix__clip0"><path fill="#fff" d="M0 0h1376v365H0z"/></clipPath></defs></svg>